<?xml version="1.0" encoding="UTF-8"?>
<svg id="Capa_2" data-name="Capa 2" xmlns="http://www.w3.org/2000/svg" viewBox="0 0 256.77 258.11">
  <defs>
    <style>
      .cls-1 {
        fill: #dbb350;
      }

      .cls-2 {
        fill: #315091;
      }
    </style>
  </defs>
  <g id="Capa_1-2" data-name="Capa 1">
    <g>
      <path class="cls-2" d="m149.42,105.86c-1.09-2.18-.64-4.99-1.57-7.58-.42-1.18-.7-2.53-.78-3.78-.18-3.17-1.34-6.11-1.84-9.21-.74-4.57-1.54-9.15-2.58-13.66-.89-3.85-1.42-7.77-2.27-11.63-.86-3.88-1.54-7.81-2.32-11.71-.76-3.76-1.5-7.52-2.36-11.25-.8-3.46-1.28-6.98-2.16-10.44-.51-2-1-4.06-1.4-6.11-.05-.28-.15-.64.09-.76.48-.24.82.15,1.13.46,2.22,2.23,4.43,4.47,6.66,6.69,4.21,4.18,8.48,8.29,12.62,12.53,1.19,1.21,2.28,1.23,3.61.54,3.27-1.69,6.51-3.41,9.8-5.05,9.25-4.62,18.88-8.2,29.04-10.16,5.77-1.11,11.61-1.84,17.52-1.47,3.21.2,6.33,1.02,9.48,1.59,4.72.85,9.14,2.48,13.23,4.85,4.34,2.51,8.33,5.49,11.83,9.22,3.78,4.03,6.39,8.57,7.81,13.8.59,2.18.6,4.53.8,6.81.09.99-.44,1.8-1.07,2.51-5.93,6.75-12.23,13.14-18.46,19.6-5.51,5.73-11.25,11.25-16.48,17.25-.74.85-1.45,1.73-2.59,2.26-.94.44-.79,1.4-.24,2.27,1.03,1.63,2.68,2.59,4.04,3.86,5.13,4.77,10.17,9.62,15.14,14.55.62.62,1.31,1.18,2,1.73.31.25.41.54.25.86-.14.28-.55.33-.72.18-1.32-1.13-3.03-.82-4.52-1.1-3.03-.57-6.09-1.23-9.15-1.5-3.9-.34-7.61-1.56-11.48-2.11-4.09-.57-8.17-1.65-12.28-2.29-3.55-.55-7.01-1.5-10.58-1.95-3.85-.49-7.65-1.42-11.48-2.15-4.9-.93-9.78-2.01-14.71-2.69-2.22-.31-4.38-.88-6.6-1.17-1.92-.24-3.82-.59-5.72-1.12-1.47-.41-1.96-.97-1.72-2.7Z"/>
      <path class="cls-2" d="m19.64,134.33c2.25-.08,4.31.4,6.31.81,5.32,1.1,10.68,2.02,16.04,2.91,3.64.61,7.25,1.49,10.91,1.98,4.33.58,8.57,1.59,12.85,2.39,3.41.64,6.84,1.32,10.25,1.77,6.25.83,12.34,2.5,18.61,3.23,4.52.53,8.96,1.73,13.45,2.57.79.15.97.49,1.03,1.19.37,4.12,1.41,8.13,2.18,12.18,1.04,5.43,1.95,10.89,3.23,16.26.71,2.97.94,6.04,2.08,8.96.59,1.51.27,3.45.83,5.12,1.2,3.61,1.52,7.43,2.39,11.12.82,3.45,1.19,7.07,1.99,10.57.63,2.75,1.31,5.51,1.67,8.3.48,3.73,1.78,7.26,2.32,10.97.18,1.2.84,2.34.5,3.73-1.49-1.31-3.03-2.52-4.4-3.9-4.92-4.9-9.68-9.95-14.84-14.6-.16-.15-.33-.3-.47-.47-2.19-2.51-2.69-2.19-5.41-.41-1.94,1.27-4.04,2.25-6.08,3.29-3.86,1.97-7.88,3.62-11.88,5.3-5.93,2.49-11.99,4.58-18.31,5.93-3.67.78-7.38,1.33-11.09,1.55-3.8.23-7.65,0-11.45-.29-6.92-.52-13.27-2.84-19.31-6.26-5.15-2.92-9.58-6.65-13.29-11.17-2.78-3.39-4.74-7.29-6.08-11.51-.66-2.06-.81-4.14-.97-6.25-.13-1.66.7-2.84,1.83-3.99,3.01-3.05,6.17-5.95,8.72-9.45,1.21-1.67,2.99-2.91,4.43-4.43,3.47-3.69,6.74-7.59,10.39-11.08,2.35-2.25,4.49-4.66,6.72-6.99,2.05-2.15,4-4.41,5.99-6.62.82-.9.74-1.69-.15-2.53-3.77-3.62-7.48-7.29-11.25-10.89-3.09-2.95-6.24-5.84-9.36-8.76-.1-.1-.16-.24-.35-.53Z"/>
      <path class="cls-1" d="m134.23,236.62c.66-3.22,1.54-6.82,2.11-10.48.64-4.06,1.35-8.13,2.14-12.15.82-4.14,1.41-8.31,2.28-12.44,1.18-5.58,1.88-11.27,3.07-16.83.65-3.04.77-6.22,1.97-9.17.62-1.52.12-3.27.53-4.9.59-2.38.77-4.87,1.5-7.2.76-2.41.75-4.89,1.17-7.32.33-1.94,1.18-3.77,1.13-5.8-.01-.57.43-.93,1.11-1,5.03-.55,9.89-2.03,14.89-2.7,3.87-.51,7.62-1.57,11.48-2.13,2.5-.36,5.04-.98,7.56-1.52,3.97-.85,7.97-1.54,11.94-2.4,2.94-.63,5.91-1.13,8.86-1.76,3.82-.82,7.68-1.46,11.5-2.24,3.77-.77,7.54-1.56,11.31-2.32,3.12-.63,6.18-1.54,9.59-1.82-.8.71-1.64,1.39-2.4,2.15-5.85,5.81-11.69,11.63-17.54,17.44-1.36,1.35-1.66,2.63-.66,4.26,1.62,2.65,2.89,5.46,4.31,8.2,1.76,3.4,3.45,6.82,4.9,10.36,2.37,5.8,4.32,11.71,5.64,17.88,1.43,6.67,2.33,13.34,1.83,20.11-.25,3.4-.45,6.87-1.75,10.14-.33.84-.01,1.97-.41,2.75-1.57,3.07-2.04,6.7-4.18,9.38-1.44,1.8-2.1,4.12-3.84,5.59-1.57,1.33-3.02,2.76-4.48,4.18-1.15,1.12-2.32,2.22-3.27,3.53-1.54,2.12-3.94,2.95-6.13,4.11-2.71,1.44-5.59,2.14-8.58,2.69-2.77.51-4.99.11-7.03-1.97-5.73-5.86-11.58-11.6-17.38-17.39-3.53-3.52-6.95-7.16-10.63-10.52-1.32-1.2-3.21-1.73-4.47-3.18-1.49-1.71-3.16-3.26-4.75-4.88-1.47-1.51-2.61-1.55-4.08-.12-4.33,4.19-8.67,8.38-12.99,12.59-.61.59-1.45,1.12-1.09,2.22.04.12-.05.35-.16.44-1.71,1.45-3.43,2.89-4.99,4.19Z"/>
      <path class="cls-1" d="m125.42,19.47c-1.9,4.59-2.29,9.05-3.18,13.38-.83,4.02-1.54,8.09-2.23,12.14-.89,5.3-2.04,10.56-3.07,15.84-.79,4.03-1.38,8.11-2.18,12.15-.59,2.96-1.29,5.9-1.78,8.87-.6,3.58-1.07,7.17-1.88,10.72-.82,3.58-1.16,7.26-2.22,10.79-.09.31-.09.66-.1.99-.14,3.85-.22,3.85-4.14,4.39-3.13.43-6.26.93-9.34,1.63-4.17.95-8.41,1.51-12.56,2.47-2.72.63-5.51.85-8.19,1.48-4.42,1.04-8.91,1.59-13.31,2.58-4.48,1.01-9.04,1.61-13.5,2.67-2.4.57-4.88.69-7.19,1.33-2.99.82-6.06,1.19-9.06,1.89-3.36.79-6.85,1.39-10.41,1.98.42-1.32,1.57-1.71,2.31-2.47,5.79-5.86,11.64-11.67,17.46-17.49.68-.68.34-3.28-.33-4.33-.93-1.46-2.03-2.86-2.27-4.65-.05-.36-.21-.54-.49-.76-1.09-.85-1.61-2.1-2.02-3.36-.28-.86-.16-1.9-1.42-2.12-.32-.06-.46-.55-.3-.85.42-.82.35-1.38-.63-1.61-.24-.06-.4-.21-.4-.45,0-2.54-1.92-4.37-2.52-6.62-1.56-5.82-3.78-11.45-4.87-17.41-1.37-7.53-1.86-15.02-.76-22.66.37-2.62.94-5.24,1.7-7.64.84-2.66,1.65-5.47,3.16-8,.98-1.64,2.55-3.12,3.03-4.7.88-2.91,3.33-3.97,5.07-5.84,1.36-1.46,2.86-2.77,4.06-4.38,1.36-1.82,3.33-2.89,5.3-3.86,3.6-1.78,7.26-3.4,11.43-3.24,2.33.09,4.27.91,5.99,2.52,7.08,6.63,13.8,13.62,20.62,20.51,4.96,5.01,9.95,9.99,14.92,14.99,1.61,1.62,3.69,1.56,5.33-.02,5.38-5.16,10.28-10.82,15.91-15.73,1.02-.89,2.13-1.73,2.21-3.35.03-.66.75-1.16,1.89-1.76Z"/>
      <path class="cls-2" d="m109.76,129.16c-.03-4.41,1.15-7.75,3.35-11.13,4.53-6.94,11.11-9.09,18.61-8.43,4.98.44,9.68,2.84,12.67,7.15,2.72,3.9,4.8,8.24,4.27,13.26-.67,6.33-3.45,11.41-8.8,15.07-3.44,2.35-7.29,3.28-11.3,3.86-.7.1-1.22-.53-1.93-.7-2.29-.55-4.93-.36-6.54-2.62-1.7.16-2.75-1.03-3.72-2.06-1.42-1.51-3.05-2.82-3.94-4.87-.56-1.3-1.28-2.53-1.76-3.91-.71-2.01-1.04-4.02-.92-5.62Z"/>
    </g>
  </g>
</svg>