<?xml version="1.0" encoding="UTF-8"?>
<svg id="Capa_2" data-name="Capa 2" xmlns="http://www.w3.org/2000/svg" viewBox="0 0 361 219">
  <defs>
    <style>
      .cls-1 {
        fill: #fff;
      }

      .cls-2 {
        fill: #203c80;
      }

      .cls-3 {
        fill: #917818;
      }

      .cls-4 {
        fill: #c69f0b;
      }
    </style>
  </defs>
  <g id="Capa_1-2" data-name="Capa 1">
    <g>
      <path class="cls-1" d="m180.5.02C240.28.02,300.07.03,359.86,0c.93,0,1.15.21,1.14,1.14-.03,72.24-.03,144.48,0,216.71,0,.93-.21,1.14-1.14,1.14-119.57-.02-239.14-.02-358.71,0-.93,0-1.15-.21-1.14-1.14C.03,145.62.03,73.38,0,1.14,0,.21.21,0,1.14,0c59.78.03,119.57.02,179.35.02Zm-21.99,148.1l-.08.03.02.09c0,5.36,0,10.72,0,16.08l-.02.09.09.04c.09.23.29.27.5.27,2.32,0,4.65.11,6.96-.03,2.41-.15,4.64-1.04,6.09-3,1.72-2.31,2.6-4.8,1.64-7.87-.85-2.73-2.68-4.34-5.07-5.14-3.17-1.07-6.57-1.01-9.91-.77h-.1s-.03.09-.03.09c-.07.01-.1.06-.09.13Zm-79.68,22.76c-.07.02-.1.06-.09.13-.22.17-.16.39-.1.6-.02.45-.04.91-.04,1.36-.04,4.42.19,8.84-.04,13.26-.14,2.71.08,2.88,2.79,2.88.46,0,.91-.03,1.37,0,.58.04.85-.19.8-.78-.11-1.35.22-2.72-.18-4.06-.06-.19-.12-.39.09-.55.49-.4,3.1.03,3.45.59.45.71.89,1.43,1.29,2.16,1.01,1.84,2.35,3.07,4.65,2.64.71-.13,1.42-.23,2.34-.37-.58-.77-.99-1.51-1.57-2.05-.82-.76-1.34-1.62-1.67-2.68-.3-.98-.31-1.72.64-2.35,2.54-1.69,2.46-4.91,1.94-6.91-.27-1.02-.75-1.73-1.84-2.25-1.05-.5-1.92-1.46-3.17-1.53-3.51-.19-7.02-.43-10.53-.17h-.1s-.03.09-.03.09Zm165.45,36.75c-.13-.06-.15,0-.13.11-2.35,2.68-4.91,5.16-7.54,7.7.71.09,1.03-.37,1.4-.65,3.41-2.51,6.58-5.32,9.9-7.93,3.38-2.65,6.5-5.6,9.82-8.32,2.57-2.12,4.99-4.41,7.58-6.52,4.35-3.55,8.59-7.23,12.94-10.79,2.79-2.28,5.63-4.51,8.5-6.69,2.03-1.54,4.11-3.02,6.07-4.66.31-.26.52-.71.86-.84,1.9-.69,3.23-2.23,4.9-3.26,2.87-1.78,5.49-3.98,8.42-5.67,2.69-1.56,5.36-3.16,8.11-4.63,3.08-1.64,6.19-3.19,9.46-4.4.96-.35,1.77-1.12,2.72-1.22,2.32-.25,4.57-.86,6.88-1.11,4.9-.53,9.57-.32,13.6,3.66-.22-.46-.28-.6-.35-.73-2.12-3.6-5.39-5.6-9.33-6.61-4.82-1.22-9.52-.19-14.15,1.02-2.46.65-4.88,1.52-7.29,2.38-5.15,1.82-10.05,4.16-14.88,6.66-2.36,1.22-4.67,2.52-6.99,3.82-2.5,1.4-5.03,2.78-7.47,4.29-3.26,2.01-6.54,3.98-9.7,6.14-1.03.71-2.09,1.43-3.2,2.04-2.16,1.19-4.23,2.52-6.27,3.89-2.56,1.71-5.09,3.48-7.65,5.19-2.71,1.81-5.44,3.59-8.16,5.38-2.32,1.53-4.57,3.18-6.98,4.55-4.1,2.33-7.9,5.12-11.96,7.51-2.61,1.53-5.29,2.95-7.92,4.45-1.91,1.08-4.02,1.78-6.02,2.72-1.7.8-3.41,1.68-5.15,2.29-3.1,1.08-5.96,2.7-9.05,3.76-.92.32-1.8.78-2.7,1.16-2.05.85-4.13,1.61-6.15,2.53-2.31,1.05-4.63,2.05-7.04,2.81.25.5.71.33,1.1.34,2.4.04,4.77-.22,7.14-.52,3.71-.47,7.43-.9,11.12-1.51,3.43-.57,6.77-1.57,10.11-2.52,3.88-1.1,7.7-2.35,11.41-3.93,4.6-1.95,9.11-4.16,12.93-7.39,3-2.54,6.3-4.91,8.22-8.54.16-.3.39-.65.89-.61,0,.37.12.79-.02,1.1-.99,2.25-1.89,4.56-3.08,6.7-.94,1.7-2.25,3.21-3.39,4.8-.52.6-1.23,1.07-1.32,1.96-.09-.02-.15.01-.18.1Zm-137.7-58.92c-.01.21-.03.41-.04.62-.09,4.47.29,8.93-.05,13.4-.18,2.32-.24,1.99,2.07,2,.41,0,.84-.05,1.24,0,.72.09.92-.19.91-.89-.03-1.94.03-3.88.04-5.82.01-2.98-.02-5.96.16-8.94.02-.41.21-1.13-.37-1.16-1.28-.07-2.61-.38-3.86.21-.23.16-.16.37-.09.58Zm-24.04-.59c-.18-.36-.5-.27-.79-.22-.06-.04-.12-.04-.17.01-.91-.01-1.82,0-2.74-.04-.67-.03-.97.27-1.32.86-.52.89-.29,1.96-.88,2.78-.79,1.11-.69,2.58-1.47,3.71-.14.21-.14.58-.09.85.16.83-.22,1.24-.98,1.43-.86.21-1.11-.43-1.29-1.01-.72-2.36-1.85-4.59-2.41-7-.27-1.17-.81-1.83-2.13-1.66-.73.09-1.49.01-2.24.02-1.15.01-1.32.23-.61,1.18,1.33,1.79,1.6,4,2.53,5.96,1.11,2.33,1.94,4.84,2.93,7.26.17.42.4.86.39,1.29-.01,1.19.67,1.47,1.66,1.46.54,0,1.08-.04,1.62.01,1.09.11,1.62-.38,1.76-1.43.17-1.3.68-2.65,1.21-3.69,1.11-2.18,1.91-4.48,2.94-6.69.76-1.65,1.4-3.35,2.09-5.03.02-.04.04-.07.07-.11-.03.02-.06.04-.09.06Zm93.85,16.2l-.02.09.08.04c.32.5.83.28,1.25.28,3.28.02,6.56.01,9.84.01,2.19,0,2.12,0,2.19-2.14.04-1.2-.37-1.62-1.56-1.59-2.16.06-4.32-.02-6.48.02-1.42.03-1.13-.96-1.22-1.8-.1-.92.2-1.24,1.16-1.21,2.03.07,4.07,0,6.1.06.79.02,1.05-.23.98-.99-.05-.58-.04-1.16-.02-1.74.02-.57-.17-.83-.78-.82-1.99.02-3.99-.05-5.98.02-.75.03-1.44.37-1.47-.85-.05-2.06-.04-2.15,1.41-2.16,2.12-.01,4.24-.03,6.35.03.8.02.99-.44,1.1-1.03.16-.88.34-1.78-.12-2.63-.05-.09-.31-.08-.47-.08-3.84-.13-7.7.21-11.54-.22-.69-.08-1,.27-.96.95.06,1.11.14,2.23.15,3.34.01,4.14,0,8.28-.02,12.43Zm-158.16,17.88c.98-.76.66-1.85.75-2.85.07-.76-.23-1.02-.99-.99-1.82.06-3.65.03-5.48.06-2.58.04-2.55.05-2.53-2.51,0-.77.22-1,.99-.97,1.86.08,3.74.14,5.6.07,1.04-.04,2.5.62,3.01-.13.52-.77.11-2.16.16-3.27.03-.68-.15-.93-.9-.92-4.27.04-8.55.05-12.82.02-.84,0-1.03.27-1.02,1.06.04,4.72.02,9.44.02,14.17,0,3.51-.3,3.19,3.23,3.19,1.36,0,1.74-.39,1.75-1.79.02-1.33,0-2.65,0-3.98,0-.44-.1-.95.55-1.06.11-.01.23-.03.34-.04,2.22.12,4.44.14,6.66.03.24.09.47.13.68-.08Zm130.43-18.96c-.02-4.55-.09-9.11-.03-13.66.01-1.08-.2-1.52-1.33-1.7-1.91-.3-2.69.21-2.69,2.06,0,1.91,0,3.81,0,5.72,0,.38-.08,1.05-.57.59-.97-.91-2.14-1.65-2.77-2.89-.7-1.38-1.8-2.45-2.82-3.58-.38-.91-.6-2.01-2-1.78-.62-.04-1.24-.05-1.85-.13-1.09-.15-1.43.26-1.4,1.37.1,4.13.05,8.27.16,12.4.03,1-.8,2.24.13,2.92.77.57,2.01.07,3.03.2.99.13,1.18-.33,1.15-1.21-.06-2.15-.04-4.3-.02-6.45,0-.29-.22-.73.21-.85.34-.1.58.23.83.45,1.01.9,1.82,1.95,2.62,3.03.79,1.07,1.54,2.2,2.59,3.06-.05,1.17.75,1.58,1.68,1.89l1.37-.09s.08,0,.08,0c.22,0,.44-.01.66-.02.29.1.57.22.85-.02.17-.14.19-.32.15-.52.13-.26.14-.52-.01-.78Zm-36.87-99.78c-.31-1.63.17-3.09.16-4.57-.03-4.06,0-8.13,0-12.19,0-14.43,0-28.86.04-43.29,0-1.07-.22-1.35-1.36-1.34-12.92.03-25.83,0-38.75-.06-.9,0-1.07.22-1.07,1.09.02,26.91.02,53.82.02,80.74,0,.78-.1,1.55-.24,2.32-.91,4.87-3.83,8.01-8.47,9.5-2.99.96-6.11,1.25-9.23.63-1.91-.38-3.84-.72-5.55-1.85-4.03-2.66-5.54-6.5-5.53-11.13.02-26.82.04-53.64.09-80.46,0-.65-.12-.84-.8-.83-5.36.05-10.71.06-16.07.06-7.52,0-15.04,0-22.55-.02-1.05,0-1.5.21-1.48,1.45.07,7.05,0,14.1.04,21.15.15,21.63-.36,43.26.26,64.89.09,3.1,1.64,5.86,2.05,8.88.03.2.3.4.5.52.29.16.41.36.41.68.01.82.41,1.51.8,2.19,1.65,2.93,3.21,5.85,5.67,8.31,1.07,1.07,2.11,2.4,3.21,3.48,3.98,3.9,8.63,6.88,13.67,9.27,2.96,1.4,5.93,2.85,9.06,3.71,4.62,1.25,9.33,2.2,14.17,2.32,6.66.16,13.27.08,19.85-1.24,4.55-.91,8.92-2.24,13.08-4.31,1.11-.55,2.18-1.28,3.46-1.49.32-.05.65-.33.93-.09.31.27.03.6-.06.9-.46,1.51-1.17,2.91-1.85,4.33-.67,1.4-.7,1.4.78,1.38,1.91-.02,3.82-.08,5.73-.08,10.22,0,20.44,0,30.65,0,1.45,0,2.91-.01,4.36-.04.55-.01,1.34-.17,1.3-.71-.11-1.32.86-2.2,1.11-3.35.45-2.1,1.54-3.99,2.24-6.01.52-1.51,1.04-3.08,1.69-4.57.37-.85,1.01-1.65,1.01-2.61,0-.75.38-.79.93-.78,1.91.06,3.81.16,5.72.16,9.76,0,19.52-.02,29.28-.03.87,0,1.57.1,2.07,1.12.64,1.31.9,2.73,1.33,4.07.76,2.41,1.83,4.7,2.54,7.14.51,1.76,1.33,3.46,1.66,5.28.11.6.37.38.61.41.96.09,1.87-.3,2.84-.35,4.71-.26,9.44.08,14.15-.32,2.16-.19,4.22-.11,6.11-1.54,1.51-1.14,3.23-2.07,4.81-3.12,2.69-1.79,5.36-3.5,8.39-4.62,1.45-.53,2.77-1.35,4.31-1.69-.6-.74-1.39-.69-2.05-.95-.49-.19-1.28.16-1.42-.68-.15-.87.65-1.06,1.14-1.45.22-.17.49-.32.76-.39,1.43-.37,2.77-.98,4.12-1.55,1.97-.83,3.96-1.61,5.9-2.5.55-.26,1.1.32,1.6-.22.67-.74,1.68-1.16,2.52-1.43,3.55-1.12,6.94-2.65,10.41-3.96,1.1-.41,2.21-1.01,3.28-1.21,1.68-.31,3.25-.96,4.88-1.36,4.43-1.09,8.82-2.38,13.31-3.24,2.64-.5,5.25-1.18,7.98-1.31,2.05-.1,4.1-.59,6.18-.73,1.22-.08,2.44,0,3.62-.11,4.35-.42,8.62-.1,12.86.79.76.16.99.12,1.29-.71.77-2.09.79-4.27.9-6.42.15-2.92-.1-5.83-.46-8.74-.4-3.15-1.17-6.21-2.3-9.15-2.35-6.11-6.87-10.5-11.88-14.42-2.83-2.21-6.19-3.43-9.62-4.49-4.07-1.26-8.21-2.13-12.42-2.79-2.16-.34-4.35-.39-6.47-.77-3.94-.71-7.95-.9-11.88-1.65-2.2-.42-4.51-.33-6.55-1.46-1.72-.95-3.54-1.97-3.91-4.06-.45-2.56.93-4.53,2.87-6.04,2.66-2.06,5.91-2.42,9.08-2.56,5.1-.23,10.15.19,15.13,1.61,3.18.91,6.18,1.99,8.67,4.21.83.74,1.7,1.44,2.51,2.2.45.43.79.52,1.23,0,.79-.94,1.74-1.72,2.67-2.52,4.82-4.16,9.63-8.33,14.42-12.52,2.58-2.25,5.11-4.56,7.65-6.84.42-.38.8-.7.1-1.26-1.62-1.29-3.16-2.69-4.79-3.97-6.59-5.15-14.1-8.41-22.18-10.33-3.18-.76-6.42-1.26-9.71-1.59-4.17-.42-8.34-.88-12.53-.93-3.01-.04-6.01.11-9.01.44-2.52.27-5.07.4-7.55.89-5.06,1-10.04,2.31-14.73,4.58-2.77,1.34-5.5,2.77-7.91,4.64-5.77,4.49-10.59,9.74-13.32,16.72-1.57,4.01-2.18,8.14-2.51,12.34-.26,3.33.28,6.61.9,9.89.73,3.86,1.72,7.54,3.99,10.87,2.53,3.72,5.6,6.8,9.26,9.35,4.25,2.96,9,4.92,13.86,6.55,2.66.89,5.49,1.32,8.28,1.82,2.12.38,4.31.39,6.42.82,2.97.6,6,.59,8.98,1.16,2.72.51,5.5.52,8.22,1.2,2.9.72,4.8,2.1,5.3,5.21.38,2.4-1.29,5.67-3.51,6.69-3.32,1.52-6.86,1.96-10.43,2.07-2.84.09-5.7.19-8.56-.18-3.4-.44-6.84-.68-10.14-1.66-4.6-1.37-9.09-3-12.5-6.65-1.1-1.18-1.75-1.1-2.92.01-.18.17-.33.36-.47.56-.63.83-1.46,1.11-2.48,1.01-1.06-.1-.65-.96-.85-1.5-.1-.27-.24-.53-.36-.79-.92-1.87-1.72-3.81-2.49-5.73-1.18-2.94-2.41-5.87-3.57-8.82-1.25-3.17-2.61-6.3-3.89-9.47-.31-.76-.32-1.67-.73-2.36-1.73-2.92-2.95-6.09-4.24-9.19-1.7-4.07-3.36-8.16-5.02-12.25-.78-1.93-1.76-3.78-2.49-5.71-1.46-3.84-3.09-7.6-4.62-11.41-1.4-3.48-2.97-6.88-4.41-10.34-1.27-3.03-2.57-6.05-3.63-9.16-.32-.94-.71-.86-1.37-.86-9.1,0-18.19,0-27.29,0-2.32,0-2.81-.62-3.44,2.44-.03.15-.17.29-.23.44-.82,1.87-1.74,3.7-2.42,5.62-.74,2.1-1.61,4.13-2.5,6.15-1.88,4.26-3.63,8.57-5.42,12.86-1.85,4.41-3.7,8.83-5.48,13.28-1.6,3.99-3.33,7.92-4.94,11.91-.84,2.08-1.84,4.09-2.57,6.22-.36,1.05-.83,2.17-2.21,2.5Zm65.13,154.19c1.27-.24,2.49-.51,3.69-1.09,1.73-.85,3.64-1.32,5.45-2.02,4.08-1.59,8.16-3.2,12.21-4.86,3.26-1.33,6.51-2.69,9.72-4.15,3.23-1.47,6.4-3.06,9.59-4.62,5.4-2.63,10.66-5.52,15.88-8.49,3.34-1.9,6.68-3.8,10.01-5.72,2.85-1.64,5.55-3.51,8.46-5.06,3.88-2.07,7.39-4.78,11.22-6.98,4.88-2.81,9.27-6.37,14.06-9.33,2.21-1.37,4.35-2.91,6.61-4.18,4.6-2.58,9.08-5.39,13.86-7.65,2.24-1.06,4.37-2.35,6.61-3.41,4.34-2.04,8.79-3.81,13.32-5.4,2.64-.92,5.3-1.83,8.02-2.3,3.21-.55,6.45-1.1,9.76-.88,2.07.14,4.03.68,6.05,1.05,2.22.4,3.72,1.93,5.22,3.4,1.82,1.78,2.82,3.98,3.14,6.55.22,1.75.09,3.51.29,5.26.42,0,.52-.27.67-.51,1.18-1.89,2.43-3.74,3.48-5.73,1.99-3.81,3.89-7.6,4.62-11.93.68-4.08.51-7.85-1.73-11.53-1.62-2.66-4.08-4.11-6.65-5.25-2.38-1.06-4.96-1.75-7.57-2.34-3.94-.89-7.91-.82-11.85-1.34-.32-.04-.64-.07-.75.41-.54,2.35-2.16,3.83-4.04,5.17-2.42,1.73-5.14,2.19-8.02,2.19-1.71,0-1.81.1-1.88,1.84-.05,1.24-.55,2.22-1.23,3.26-.95,1.46-2.43,2.42-3.35,3.92-.5.81-1.53,1.52-2.59,1.63-4.37.44-8.77.64-13.06-.52-1.21-.32-2.69-.13-3.62-1.34.53-.5,1.15-.54,1.77-.55,1.79-.02,3.57-.04,5.36-.07.28,0,.63.1.8-.21.22-.42-.25-.53-.42-.76-.85-1.12-1.83-2.03-2.18-3.59-.51-2.29.32-5.75,2.13-7.16,3.15-2.45,6.67-2.45,10.34-1.76,1.25.23,2.46.66,3.68.93,2.19.49,4.5,1.11,6.76.09.1-.05.26-.04.36,0,.77.39,1.3.23,1.86-.49.46-.59,1.37-.85,1.76-1.47.73-1.15.23-5.61-.78-6.37-.88-.67-1.41-1.58-2.18-2.32-2.25-2.15-4.73-3.91-7.53-5.35-2.13-1.1-4.29-2.07-6.55-2.72-3.5-1.01-6.96-2.16-10.6-2.7-2.74-.41-5.5-.48-8.25-.68-1.97-.15-3.97-.29-5.93-.17-1.36.08-2.76.26-4.13.47-1.44.23-2.88.15-4.32.32-2.11.25-4.16.89-6.32.89-.85,0-1.78.15-2.57.4-1.55.49-3.14.92-4.71,1.25-4.25.87-8.41,2.04-12.53,3.32-2.8.87-5.56,1.9-8.29,2.96-3.54,1.38-7.05,2.84-10.54,4.34-.54.23-1.67.13-1.54.89.14.77,1.25.75,1.98.97.04.01.08,0,.12,0,.46.06,1.1-.16,1.22.54.13.73-.47.96-.98,1.26-1.51.88-3.26,1.07-4.87,1.64-2.83,1.01-5.53,2.26-8.16,3.67-2.06,1.11-4.04,2.39-6.09,3.5-3.12,1.7-5.91,3.86-8.92,5.7-2.08,1.27-3.93,2.88-5.96,4.22-2.85,1.87-5.51,4.02-8.53,5.63-.24.13-.56.33-.43.66.11.3.45.3.75.3,1.29,0,2.58,0,3.86,0,1.59.01,1.76.15,1.73,1.69-.06,3.11.06,6.22-.21,9.32-.02.27-.02.63.13.81.16.2.52.05.65-.16.75-1.14,2.05-1.52,3.09-2.26,3.96-2.8,7.92-5.59,11.93-8.32,3.71-2.53,7.47-4.98,11.17-7.53,2.19-1.51,4.53-2.81,6.76-4.28,3.97-2.62,8.05-5.06,12.23-7.34,3.56-1.94,7.24-3.65,10.85-5.5,4.04-2.07,8.19-3.86,12.49-5.29,3.44-1.15,7.01-1.76,10.6-2.3,2.57-.39,5.13-.62,7.73-.8,2.41-.16,4.84-.44,7.25-.59,2.51-.15,5.04-.19,7.56.13,2.97.38,5.99.37,8.94.81,3.21.48,6.37,1.29,9.3,2.78.32.16.46.41.32.7-.12.27-.46.21-.67.12-.37-.17-.7-.55-1.13-.46-2.22.45-4.39-.46-6.6-.2-.25.03-.51.04-.74-.01-2.95-.59-5.96-.66-8.95-.89-3.12-.24-6.28-.06-9.43.11-3.72.2-7.39.66-11.06,1.16-4.24.57-8.38,1.72-12.44,3.03-4.81,1.56-9.5,3.49-13.97,5.86-3.52,1.86-6.97,3.83-10.25,6.1-4.62,3.2-9.3,6.32-13.71,9.82-3.85,3.05-7.85,5.9-11.69,8.96-1.78,1.42-3.65,2.72-5.47,4.08-2.83,2.11-5.8,4.03-8.79,5.93-1.65,1.04-3.15,2.33-5.03,3.01-.54.2-.93.63-.92,1.34.04,1.73.01,3.46.01,5.19-3.48.54-6.97.22-10.44.3-1.24.03-2.45.03-3.6.58-.93.44-1.88.83-2.84,1.17-3.42,1.21-7.03,1.72-10.51,2.68-.7.19-1.49.05-2.23.05-.14,0-.34.06-.42-.16-.06-.19.04-.34.18-.42.94-.56,1.84-1.39,2.86-1.59,1.79-.35,3.17-1.47,4.79-2.1.59-.23.8-.78.47-1.33-.33-.55-.79-.31-1.29-.1-1.03.43-2.03.93-3.19,1-2.51.14-5.02.27-7.51.51-.74.07-1.49.37-2.15.72-1.81.95-3.54,2.07-5.38,2.96-3.92,1.89-7.89,3.69-11.84,5.51-2.34,1.08-4.64,2.25-7.03,3.2-2.66,1.06-5.22,2.34-7.83,3.5-2.39,1.07-4.65,2.44-7.12,3.35-.36.13-.85.15-.9.72,1.12.5,2.08-.29,3.12-.35,1.89-.11,3.81-.15,5.65-.52,4.64-.94,9.25-2.01,13.78-3.36,4.39-1.31,8.78-2.63,13.16-3.97,2.92-.89,5.79-1.92,8.74-2.71,4.49-1.2,9.01-2.32,13.45-3.72.99-.31,2.04-.86,3.41-.45-1.24,1.01-2.28,1.94-3.41,2.73-1.73,1.21-3.51,2.33-5.29,3.47-1.87,1.19-3.72,2.4-5.63,3.5-4.27,2.45-8.59,4.81-12.92,7.16-3.02,1.64-6.15,3.03-9.23,4.52-3.52,1.71-7.11,3.33-10.76,4.8-2.55,1.03-5.02,2.26-7.6,3.18-4.15,1.49-8.16,3.3-12.31,4.78-3.03,1.08-5.89,2.69-9.16,3.08-.24.03-.54.04-.58.35-.04.3.23.4.46.51,1.78.84,3.74,1.19,5.6,1.73,3.33.95,6.72,1.8,10.15,2.4,1.64.29,3.26.77,4.92.92,2.7.24,5.35.83,8.09.82,2.93-.01,5.86.36,8.79.47,5.05.19,10.08-.4,15.12-.49,2.82-.05,5.58-.53,8.33-.91,3.05-.41,6.12-.87,9.14-1.58,1.75-.41,3.49-.93,5.25-1.27,4.72-.89,9.22-2.56,13.72-4.13,2.44-.85,4.9-2.06,7.08-3.62.51-.36,1.34-.54,1.69,0,.37.55-.48.79-.81,1.15-.08.09-.21.14-.31.2-2.34,1.44-5,2.18-7.45,3.4-3.48,1.74-7.41,2.37-10.8,4.32-1.36.79-2.82,1.4-4.13,2.31Zm9.78-82.79c-4.45,0-8.77,0-13.08,0-56.53,0-113.07,0-169.6,0-.62,0-1.25.04-1.87.02-.98-.03-1.46.36-1.41,1.39.05.91.05,1.83,0,2.74-.04.73.23,1.08.97,1.11.91.04,1.82.14,2.74.14,39.13,0,78.26-.02,117.38-.02,16.74,0,33.48.04,50.22.06.92,0,1.82-.07,2.68-.43,1.29-.54,2.57-1.16,3.92-1.51,1.05-.27,1.86-1.11,2.88-1.2,1.39-.13,2.55-.9,3.9-1.1.46-.07,1.03-.33,1.27-1.19ZM47.63,206.45c.26-1.63-.19-3.5-.96-5.32-1.3-3.08-3.64-5.11-6.84-5.66-2.2-.38-4.48-.34-6.76.78-4.96,2.44-7.12,9.51-5.36,14.33.46,1.25.76,2.54,1.6,3.67,1.4,1.89,3,3.28,5.4,3.78,1.55.32,3.01.08,4.52.01,1.83-.08,3.39-.76,4.71-1.93,2.77-2.46,3.91-5.62,3.69-9.65Zm36.9-10.87c-2.28,0-4.57,0-6.85,0-.5,0-.93.02-.87.7.17,2.15-.45,4.27-.23,6.42.07.64-.06,1.3-.18,1.96-.14.8-.45,1.81.39,2.4.81.56,1.7,1.01,2.5,1.59.37.27.99.28,1.31.02,1.18-.95,2.53-.61,3.83-.64,1.18-.04,2.31.96,2.36,2.01.11,2.15-.42,2.89-1.96,3.22-2.4.51-4.44-.01-6.18-1.74-.36-.36-.81-.53-1.1.09-.49,1.04-1.37,1.77-2.14,2.57-.68.7-.57,1.12.16,1.67,2.71,2.05,5.79,2.78,9.09,2.36,1.36-.17,2.82-.11,4.07-.88,2.13-1.31,3.61-2.91,3.89-5.65.25-2.52-.12-4.56-2.05-6.25-1.97-1.72-4.33-1.92-6.78-1.88-.74.01-1.58,1-2.12.23-.37-.53-.03-1.53-.12-2.3-.09-.82.22-.95.97-.93,2.78.06,5.57,0,8.35.07.91.02,1.17-.3,1.12-1.14-.05-.87-.07-1.75.01-2.61.1-1.08-.36-1.34-1.36-1.3-2.03.07-4.07.02-6.11.02Zm-71.71,22.4s0,0,0,0c2.61,0,5.23-.01,7.84,0,.86,0,1.29-.31,1.31-1.22.02-.81-.06-1.62.12-2.45.11-.5-.03-1.24-1.08-1.17-2.32.14-4.64.09-6.97.11-.35,0-.78.07-.81-.5-.02-.45.07-.77.54-.99,2.41-1.1,4.59-2.57,6.26-4.62,3.73-4.59,1.44-10.08-3.64-11.49-4.2-1.16-8.06-.07-11.18,3.19-.68.71-.52,1.25.07,1.78.74.67,1.62,1.19,2.28,1.92.81.89,1.36.86,1.91-.19.68-1.3,1.94-1.7,3.24-1.98.98-.21,1.97.18,2.47.86,1.04,1.4.8,2.89-.46,4.11-3.1,2.99-6.47,5.62-10.23,7.73-.34.19-.54.45-.44.79.31,1.02-.03,2.01-.06,3.01-.02.86.22,1.16,1.11,1.14,2.57-.05,5.15-.02,7.72-.02Zm48.4,0c2.62,0,5.23-.04,7.85.02,1.01.02,1.33-.34,1.26-1.29-.06-.82-.06-1.66,0-2.49.07-.91-.3-1.11-1.15-1.08-2.12.08-4.24.07-6.35.06-.32,0-.81.27-.95-.25-.12-.44-.05-.86.38-1.22.57-.47,1.21-.82,1.8-1.23,2.52-1.78,5.27-3.41,5.7-6.9.22-1.83.19-3.63-1.09-5.18-1.96-2.38-4.44-3.24-7.53-3.15-3.37.1-5.77,1.71-7.93,4.01-.47.5-.44.97.13,1.33,1.05.68,1.97,1.49,2.84,2.38.55.56.9.32,1.24-.26.8-1.36,2.15-2.03,3.56-2.38,1.75-.43,2.82.6,2.87,2.4.03,1.15-.41,2.21-1.2,2.87-2.06,1.7-4.06,3.47-6.21,5.07-2.04,1.51-4.8,2.65-4.09,6.13.18.9.4,1.19,1.28,1.17,2.53-.04,5.07-.02,7.6-.02Zm55.22-38.07c.56-5.3-4.76-9.51-9.71-9.41-6.35.13-9.77,3.91-9.87,9.58-.09,5.36,3.73,9.23,9.77,9.45,5.2.2,10.41-4.53,9.81-9.63Zm-52.88-3.12s.03,0,.04,0c0-1.7-.06-3.4.02-5.09.04-.88-.3-1.19-1.06-.96-.94.28-1.88.24-2.82.2-.7-.03-.91.18-.91.9,0,1.74-.22,3.48-.12,5.21.18,2.97-.52,5.98,1.25,8.87.92,1.5,2.01,2.31,3.43,2.9,2.32.95,4.64.8,7.08.17,2.47-.64,4.53-3.03,4.86-5.16.48-3.1.49-6.23.47-9.36-.02-3.84,0-3.8-3.93-3.77-.9,0-1.1.29-1.08,1.13.04,3.11.04,6.21,0,9.32-.03,2.14-.97,3.4-2.79,3.91-1.18.33-3.37-.16-3.71-.86-.44-.92-.83-1.84-.77-2.93.08-1.49.02-2.98.02-4.47Zm-29.63-.3h0c0,1.62.1,3.24-.02,4.85-.23,3.07-1.39,3.91-4.4,3.76-.41-.02-.81-.15-1.22-.22-.44-.07-.82-.35-.99-.67-.89-1.59-1.08-3.35-.79-5.11.41-2.52.13-5.03.19-7.54.01-.44-.18-1.02-.79-.83-1.14.35-2.29.19-3.44.2-.54,0-.73.17-.71.71.18,3.99-.32,7.98.4,11.97.43,2.35,1.58,3.97,3.68,4.94,2.35,1.09,4.74,1.22,7.28.52,3.05-.83,5.29-3.33,5.58-6.49.25-2.68.22-5.36.23-8.05,0-3.93,0-3.9-3.98-3.85-.85.01-1.05.28-1.02,1.07.06,1.57.02,3.15.02,4.73Zm22.94-20.07c0-2.45-.02-4.89.01-7.33,0-.73-.21-1.08-1-1.04-.83.04-1.67.07-2.49,0-.84-.07-.96.31-.93,1.02.06,1.74.09,3.48.08,5.22,0,.5.26,1.2-.41,1.42-.56.18-.99-.33-1.38-.68-1.45-1.29-2.43-2.98-3.56-4.52-1.27-1.73-2.58-2.83-4.88-2.49-.87.13-1.2.23-1.18,1.18.05,4.1.03,8.2.02,12.31,0,1.05-.49,2.47.01,3.04.59.66,2.04,0,3.1.15.96.15,1.12-.29,1.12-1.1.01-2.07-.41-4.12-.22-6.18.03-.37-.28-.91.23-1.09.57-.2,1.22-.07,1.6.42,1.41,1.79,2.85,3.56,4.12,5.45,1.13,1.68,2.3,2.93,4.58,2.59.91-.13,1.21-.37,1.19-1.27-.04-2.36-.01-4.72-.01-7.09Zm65.46-8.61c-2.59,0-2.63-.08-4.44.87-4.74,2.47-6.46,8.38-2.86,12.98,1.81,2.31,4.28,3.4,7.33,3.39,2,0,3.52-.96,5.21-1.69,1.53-.66,1.93-2.22,2.48-3.37,1.1-2.3,1.36-4.95.05-7.37-.53-.98-.79-2.17-1.84-2.83-1.9-1.19-3.82-2.32-5.93-1.98Zm-92.48,0c-4.19-.55-8.93,3.8-8.74,8.89.16,4.16,4.48,8.72,9.09,8.32,5.05-.44,8.67-3.52,8.67-8.8,0-4.68-2.91-8.34-9.02-8.4Zm67.3.04c-1.35-.33-2.53.34-3.82.91-2.07.91-3.24,4.69-1.89,6.53,1.2,1.64,3.03,2.25,4.81,2.63,1.19.25,2.26.69,3.36,1.1.74.28.29.98.38,1.49.08.41-.19.69-.65.73-1.97.14-3.89-.02-5.64-1-1.39-.78-1.65-.76-2.46.57-.27.44-.36,1-.75,1.37-.29.27.01.24.13.38.85.96,2.02,1.28,3.16,1.76,2.14.9,4.3.86,6.44.38,1.03-.23,2.03-.9,2.86-1.6.9-.75,1.25-1.92,1.41-3.08.22-1.55-.91-3.77-2.14-4.19-2.11-.72-4.23-1.43-6.37-2.03-.77-.22-.69-.67-.71-1.2-.02-.57.15-1.06.77-1.05,1.27.02,2.56-.2,3.8.36,2.2,1,2.22.98,3.4-1.05.56-.96.09-1.92-1.02-2.07-.29-.04-.66.06-.85-.09-1.23-.96-2.64-1.02-4.22-.86Zm-84.04,17.12c2.9-.01,4.39-.66,6.54-2.87.55-.57.43-1.17-.33-1.3-.41-.07-.67-.25-.94-.51-1.09-1.08-1.33-1.09-2.41-.08-1.39,1.31-5.13,1.08-6.2-.37-1.24-1.68-.79-6.06.77-7.45.15-.13.32-.26.51-.33,1.97-.8,3.76-.61,5.3.98.29.3.62.63,1.05.22.72-.68,1.45-1.36,2.11-2.09.32-.35.6-.85-.04-1.2-1.72-.95-3.2-2.2-5.44-2.25-2.2-.05-4.18.31-5.9,1.49-2.77,1.91-4.38,6.01-3.2,9.83.93,3.02,4.7,6.29,8.18,5.94Zm35.73,5.73h0c-1.62,0-3.24-.04-4.85,0-3.71.1-2.98-.78-3.08,3.28-.02.69.21.98.92.95,1.12-.04,2.24.04,3.36-.02.75-.04.99.13.98.94-.05,3.44-.02,6.87-.03,10.31q0,3.06,3.05,2.95c.12,0,.25,0,.37-.02.89-.1,1.39-.44,1.38-1.48-.05-3.52-.04-7.04-.01-10.56.02-2.66-.18-2.1,2.08-2.13.41,0,.83,0,1.24,0,2.66,0,2.62,0,2.64-2.73,0-1.06-.38-1.51-1.45-1.49-2.2.03-4.4.01-6.6.01Zm35.18-14.44h0c0,1.82,0,3.65,0,5.47,0,.95-.34,2.15.12,2.77.52.7,1.78.07,2.72.18.25.03.5,0,.75.04.7.09.94-.2.93-.91-.02-5.06-.02-10.11,0-15.17,0-.64-.17-.9-.84-.86-.83.05-1.67.08-2.49,0-.92-.09-1.24.19-1.22,1.15.06,2.44.02,4.89.02,7.33Zm222.51-32.09c-1.24-.26-2.64.23-3.52,1.15-.89.92-1.56,2.27-1.58,3.66-.02,2.22,2.41,5.02,4.95,5.17,2.45.15,5.33-2.2,5.42-5.03.09-2.89-2.14-4.96-5.27-4.95Zm-179.69,19.94c-.75-.68-1.69-.87-2.52-1.27-1.09-.52-1.79-.05-2.18.9-.26.63-.51,1.19-1.14,1.52-.39.2-.39.52-.11.81.2.21,3.07-.09,3.21-.36.58-1.11,1.79-1.02,2.75-1.6Z"/>
      <path class="cls-2" d="m111.79,63.46c1.37-.33,1.85-1.45,2.21-2.5.73-2.13,1.72-4.14,2.57-6.22,1.62-3.98,3.34-7.92,4.94-11.91,1.78-4.44,3.64-8.86,5.48-13.28,1.79-4.29,3.54-8.6,5.42-12.86.89-2.02,1.77-4.06,2.5-6.15.67-1.92,1.6-3.75,2.42-5.62.07-.15.2-.28.23-.44.63-3.06,1.12-2.44,3.44-2.44,9.1,0,18.19,0,27.29,0,.66,0,1.05-.07,1.37.86,1.06,3.1,2.36,6.13,3.63,9.16,1.44,3.46,3.01,6.87,4.41,10.34,1.53,3.8,3.16,7.57,4.62,11.41.73,1.93,1.71,3.78,2.49,5.71,1.66,4.09,3.32,8.18,5.02,12.25,1.29,3.1,2.52,6.26,4.24,9.19.41.69.42,1.59.73,2.36,1.28,3.16,2.64,6.29,3.89,9.47,1.16,2.95,2.38,5.88,3.57,8.82.77,1.92,1.56,3.86,2.49,5.73.13.26.26.52.36.79.21.54-.21,1.4.85,1.5,1.03.1,1.85-.18,2.48-1.01.15-.19.3-.39.47-.56,1.18-1.12,1.82-1.19,2.92-.01,3.42,3.65,7.91,5.28,12.5,6.65,3.29.98,6.73,1.22,10.14,1.66,2.86.37,5.71.27,8.56.18,3.57-.11,7.11-.55,10.43-2.07,2.22-1.02,3.89-4.29,3.51-6.69-.5-3.11-2.4-4.49-5.3-5.21-2.72-.68-5.51-.68-8.22-1.2-2.98-.56-6.01-.55-8.98-1.16-2.11-.43-4.3-.44-6.42-.82-2.78-.5-5.61-.92-8.28-1.82-4.86-1.63-9.61-3.59-13.86-6.55-3.67-2.55-6.74-5.63-9.26-9.35-2.27-3.34-3.26-7.01-3.99-10.87-.62-3.28-1.16-6.57-.9-9.89.33-4.2.94-8.34,2.51-12.34,2.74-6.98,7.56-12.24,13.32-16.72,2.4-1.87,5.13-3.29,7.91-4.64,4.7-2.27,9.67-3.58,14.73-4.58,2.48-.49,5.03-.62,7.55-.89,3.01-.32,6-.47,9.01-.44,4.2.05,8.36.51,12.53.93,3.28.33,6.53.83,9.71,1.59,8.08,1.92,15.59,5.18,22.18,10.33,1.63,1.28,3.16,2.68,4.79,3.97.7.55.32.88-.1,1.26-2.55,2.28-5.08,4.59-7.65,6.84-4.79,4.19-9.6,8.36-14.42,12.52-.93.8-1.87,1.58-2.67,2.52-.44.52-.78.42-1.23,0-.81-.76-1.68-1.46-2.51-2.2-2.5-2.22-5.5-3.3-8.67-4.21-4.97-1.42-10.03-1.83-15.13-1.61-3.18.14-6.42.5-9.08,2.56-1.95,1.51-3.32,3.47-2.87,6.04.36,2.08,2.18,3.1,3.91,4.06,2.04,1.13,4.35,1.04,6.55,1.46,3.93.75,7.93.94,11.88,1.65,2.12.38,4.31.43,6.47.77,4.21.66,8.35,1.53,12.42,2.79,3.42,1.06,6.79,2.28,9.62,4.49,5.01,3.92,9.53,8.32,11.88,14.42,1.13,2.95,1.9,6,2.3,9.15.37,2.9.61,5.82.46,8.74-.11,2.15-.13,4.32-.9,6.42-.3.82-.53.87-1.29.71-4.25-.88-8.52-1.21-12.86-.79-1.18.12-2.41.03-3.62.11-2.08.14-4.12.63-6.18.73-2.73.13-5.34.81-7.98,1.31-4.49.86-8.88,2.14-13.31,3.24-1.63.4-3.2,1.05-4.88,1.36-1.07.2-2.18.79-3.28,1.21-3.47,1.31-6.85,2.84-10.41,3.96-.84.27-1.85.68-2.52,1.43-.49.54-1.04-.03-1.6.22-1.94.9-3.93,1.67-5.9,2.5-1.35.57-2.69,1.18-4.12,1.55-.27.07-.54.22-.76.39-.49.39-1.29.58-1.14,1.45.15.84.94.49,1.42.68.66.26,1.45.21,2.05.95-1.54.34-2.86,1.16-4.31,1.69-3.04,1.11-5.71,2.83-8.39,4.62-1.58,1.05-3.3,1.97-4.81,3.12-1.89,1.43-3.95,1.36-6.11,1.54-4.72.41-9.44.07-14.15.32-.98.05-1.88.44-2.84.35-.23-.02-.49.19-.61-.41-.34-1.82-1.15-3.52-1.66-5.28-.71-2.44-1.77-4.73-2.54-7.14-.43-1.35-.69-2.76-1.33-4.07-.5-1.02-1.2-1.12-2.07-1.12-9.76,0-19.52.03-29.28.03-1.91,0-3.81-.1-5.72-.16-.54-.02-.93.03-.93.78,0,.97-.64,1.76-1.01,2.61-.65,1.49-1.17,3.06-1.69,4.57-.7,2.02-1.78,3.91-2.24,6.01-.25,1.15-1.22,2.03-1.11,3.35.04.54-.74.7-1.3.71-1.45.03-2.91.04-4.36.04-10.22,0-20.44,0-30.65,0-1.91,0-3.82.06-5.73.08-1.48.01-1.45.02-.78-1.38.68-1.42,1.39-2.82,1.85-4.33.09-.31.37-.64.06-.9-.28-.24-.62.04-.93.09-1.28.2-2.35.93-3.46,1.49-4.16,2.06-8.53,3.4-13.08,4.31-6.57,1.32-13.19,1.39-19.85,1.24-4.84-.12-9.55-1.06-14.17-2.32-3.14-.85-6.11-2.3-9.06-3.71-5.04-2.4-9.69-5.38-13.67-9.27-1.11-1.08-2.14-2.41-3.21-3.48-2.46-2.46-4.02-5.38-5.67-8.31-.39-.69-.79-1.37-.8-2.19,0-.32-.12-.52-.41-.68-.21-.11-.48-.32-.5-.52-.41-3.03-1.96-5.79-2.05-8.88-.62-21.63-.11-43.26-.26-64.89-.05-7.05.03-14.1-.04-21.15-.01-1.24.43-1.46,1.48-1.45,7.52.02,15.04.02,22.55.02,5.36,0,10.72-.02,16.07-.06.68,0,.8.18.8.83-.04,26.82-.06,53.64-.09,80.46,0,4.62,1.51,8.47,5.53,11.13,1.71,1.13,3.64,1.48,5.55,1.85,3.11.61,6.23.33,9.23-.63,4.64-1.49,7.56-4.63,8.47-9.5.14-.77.24-1.53.24-2.32,0-26.91,0-53.82-.02-80.74,0-.87.18-1.09,1.07-1.09,12.92.06,25.83.09,38.75.06,1.14,0,1.36.27,1.36,1.34-.04,14.43-.03,28.86-.04,43.29,0,4.06-.03,8.13,0,12.19,0,1.48-.47,2.94-.16,4.57Zm42.65,15.98s0,.03,0,.05c1.95,0,3.9-.02,5.85.01.6,0,.89-.18.75-.78-.2-.82-.38-1.66-.7-2.44-.84-2.01-1.5-4.08-2.23-6.13-.82-2.31-1.94-4.53-2.44-6.95-.17-.85-.72-.75-1.29-.72-.55.03-1.04.06-1.08.86-.05.9-.4,1.74-.82,2.55-.44.86-.85,1.77-1.1,2.67-.24.84-.42,1.67-.89,2.4-.51.8-.73,1.76-1.03,2.61-.56,1.56-1.15,3.13-1.68,4.7-.34,1-.05,1.17.81,1.17,1.95,0,3.9,0,5.85,0Z"/>
      <path class="cls-4" d="m176.93,217.65c1.31-.91,2.77-1.52,4.13-2.31,3.38-1.95,7.32-2.58,10.8-4.32,2.45-1.22,5.11-1.96,7.45-3.4.11-.07.23-.11.31-.2.34-.36,1.19-.59.81-1.15-.35-.53-1.18-.36-1.69,0-2.18,1.56-4.65,2.77-7.08,3.62-4.49,1.57-8.99,3.25-13.72,4.13-1.76.33-3.49.85-5.25,1.27-3.02.71-6.09,1.17-9.14,1.58-2.75.37-5.51.85-8.33.91-5.04.09-10.07.68-15.12.49-2.93-.11-5.86-.48-8.79-.47-2.74.01-5.39-.59-8.09-.82-1.67-.15-3.28-.63-4.92-.92-3.43-.6-6.82-1.44-10.15-2.4-1.86-.53-3.82-.89-5.6-1.73-.23-.11-.49-.2-.46-.51.04-.31.33-.32.58-.35,3.27-.39,6.12-2,9.16-3.08,4.15-1.48,8.16-3.29,12.31-4.78,2.58-.93,5.05-2.16,7.6-3.18,3.65-1.47,7.24-3.09,10.76-4.8,3.07-1.49,6.21-2.89,9.23-4.52,4.33-2.35,8.65-4.71,12.92-7.16,1.92-1.1,3.77-2.31,5.63-3.5,1.78-1.13,3.56-2.26,5.29-3.47,1.13-.79,2.17-1.73,3.41-2.73-1.37-.41-2.42.13-3.41.45-4.44,1.41-8.95,2.52-13.45,3.72-2.94.79-5.82,1.82-8.74,2.71-4.38,1.34-8.77,2.66-13.16,3.97-4.54,1.35-9.15,2.42-13.78,3.36-1.84.37-3.76.41-5.65.52-1.04.06-2,.85-3.12.35.06-.57.55-.59.9-.72,2.47-.91,4.72-2.28,7.12-3.35,2.61-1.17,5.17-2.44,7.83-3.5,2.39-.95,4.69-2.12,7.03-3.2,3.95-1.83,7.92-3.62,11.84-5.51,1.84-.89,3.57-2.01,5.38-2.96.67-.35,1.42-.65,2.15-.72,2.5-.23,5.01-.37,7.51-.51,1.16-.06,2.16-.57,3.19-1,.5-.21.96-.44,1.29.1.33.55.12,1.1-.47,1.33-1.62.63-3,1.75-4.79,2.1-1.02.2-1.92,1.03-2.86,1.59-.14.08-.24.22-.18.42.07.22.27.16.42.16.75,0,1.54.14,2.23-.05,3.49-.96,7.09-1.46,10.51-2.68.96-.34,1.92-.74,2.84-1.17,1.15-.54,2.36-.55,3.6-.58,3.48-.08,6.96.24,10.44-.3,0-1.73.02-3.46-.01-5.19-.01-.71.37-1.14.92-1.34,1.88-.68,3.38-1.97,5.03-3.01,2.98-1.89,5.96-3.82,8.79-5.93,1.82-1.36,3.69-2.66,5.47-4.08,3.84-3.06,7.84-5.91,11.69-8.96,4.41-3.5,9.09-6.62,13.71-9.82,3.28-2.27,6.74-4.24,10.25-6.1,4.48-2.37,9.16-4.31,13.97-5.86,4.06-1.31,8.2-2.46,12.44-3.03,3.67-.49,7.34-.96,11.06-1.16,3.15-.17,6.31-.35,9.43-.11,2.98.23,5.99.3,8.95.89.24.05.5.04.74.01,2.21-.26,4.38.65,6.6.2.42-.09.75.29,1.13.46.21.09.54.15.67-.12.14-.29,0-.54-.32-.7-2.93-1.49-6.09-2.3-9.3-2.78-2.95-.44-5.97-.44-8.94-.81-2.53-.32-5.05-.29-7.56-.13-2.42.15-4.84.43-7.25.59-2.59.17-5.16.41-7.73.8-3.59.54-7.16,1.15-10.6,2.3-4.3,1.43-8.45,3.22-12.49,5.29-3.61,1.85-7.29,3.56-10.85,5.5-4.18,2.28-8.26,4.72-12.23,7.34-2.23,1.47-4.57,2.76-6.76,4.28-3.7,2.55-7.46,5-11.17,7.53-4.01,2.73-7.97,5.52-11.93,8.32-1.04.73-2.34,1.12-3.09,2.26-.13.2-.49.35-.65.16-.15-.19-.16-.54-.13-.81.26-3.1.15-6.22.21-9.32.03-1.54-.14-1.68-1.73-1.69-1.29,0-2.58-.01-3.86,0-.3,0-.64,0-.75-.3-.13-.33.19-.54.43-.66,3.02-1.61,5.69-3.76,8.53-5.63,2.03-1.33,3.88-2.95,5.96-4.22,3.01-1.84,5.8-4,8.92-5.7,2.05-1.11,4.03-2.4,6.09-3.5,2.63-1.41,5.33-2.66,8.16-3.67,1.62-.58,3.37-.76,4.87-1.64.51-.3,1.11-.54.98-1.26-.13-.7-.76-.47-1.22-.54-.04,0-.09,0-.12,0-.73-.22-1.84-.2-1.98-.97-.14-.76.99-.65,1.54-.89,3.49-1.51,7-2.96,10.54-4.34,2.73-1.07,5.49-2.09,8.29-2.96,4.13-1.29,8.28-2.45,12.53-3.32,1.57-.32,3.15-.76,4.71-1.25.78-.25,1.71-.4,2.57-.4,2.16,0,4.21-.65,6.32-.89,1.44-.17,2.88-.1,4.32-.32,1.36-.21,2.76-.39,4.13-.47,1.96-.11,3.96.03,5.93.17,2.75.2,5.5.28,8.25.68,3.64.54,7.1,1.69,10.6,2.7,2.26.65,4.42,1.63,6.55,2.72,2.79,1.44,5.27,3.2,7.53,5.35.77.73,1.29,1.65,2.18,2.32,1.01.76,1.5,5.23.78,6.37-.39.61-1.3.88-1.76,1.47-.56.72-1.09.87-1.86.49-.1-.05-.26-.05-.36,0-2.26,1.03-4.57.41-6.76-.09-1.21-.27-2.43-.7-3.68-.93-3.67-.68-7.19-.69-10.34,1.76-1.81,1.41-2.64,4.87-2.13,7.16.35,1.56,1.33,2.47,2.18,3.59.18.23.65.35.42.76-.16.31-.52.2-.8.21-1.79.03-3.57.05-5.36.07-.62,0-1.24.05-1.77.55.93,1.21,2.42,1.01,3.62,1.34,4.29,1.15,8.69.95,13.06.52,1.06-.11,2.09-.82,2.59-1.63.92-1.5,2.4-2.45,3.35-3.92.67-1.04,1.17-2.03,1.23-3.26.07-1.74.17-1.84,1.88-1.84,2.88,0,5.6-.46,8.02-2.19,1.87-1.34,3.5-2.83,4.04-5.17.11-.48.44-.45.75-.41,3.94.52,7.91.44,11.85,1.34,2.61.59,5.19,1.28,7.57,2.34,2.57,1.14,5.03,2.59,6.65,5.25,2.24,3.68,2.41,7.45,1.73,11.53-.72,4.32-2.62,8.12-4.62,11.93-1.04,1.99-2.29,3.83-3.48,5.73-.15.24-.25.52-.67.51-.2-1.75-.07-3.51-.29-5.26-.32-2.58-1.33-4.77-3.14-6.55-1.5-1.46-3-3-5.22-3.4-2.01-.36-3.97-.91-6.05-1.05-3.32-.22-6.56.33-9.76.88-2.72.47-5.39,1.38-8.02,2.3-4.53,1.58-8.98,3.36-13.32,5.4-2.24,1.05-4.37,2.35-6.61,3.41-4.78,2.26-9.26,5.07-13.86,7.65-2.26,1.27-4.39,2.8-6.61,4.18-4.79,2.97-9.18,6.52-14.06,9.33-3.82,2.2-7.34,4.91-11.22,6.98-2.91,1.55-5.61,3.42-8.46,5.06-3.33,1.92-6.67,3.82-10.01,5.72-5.22,2.96-10.48,5.86-15.88,8.49-3.19,1.55-6.36,3.15-9.59,4.62-3.21,1.46-6.46,2.82-9.72,4.15-4.06,1.66-8.13,3.26-12.21,4.86-1.81.7-3.72,1.18-5.45,2.02-1.2.59-2.42.85-3.69,1.09Zm-30-12.1c.57-.1,1.15-.05,1.72-.1,1.3-.12,2.36-.93,3.61-1.11,4.58-.66,9.04-1.8,13.46-3.14,1.17-.35,2.38-.64,3.49-1.11,3.69-1.56,7.53-2.77,11.13-4.57,3.24-1.62,6.52-3.17,9.65-5.01,5.12-3.01,10.01-6.33,14.58-10.13,4.14-3.44,8.03-7.16,11.57-11.21,2.64-3.03,5-6.31,7.49-9.48.3-.39.84-.7.93-1.13.37-1.74,2.05-2.63,2.61-4.31.26-.79.75-1.68,1.27-2.46.21-.32.31-.77.08-1.06-.32-.41-.67.05-.97.17-3.12,1.21-5.59,3.49-8.41,5.2-4.19,2.54-8.09,5.51-11.99,8.49-1.94,1.48-3.64,3.27-5.66,4.59-3.34,2.19-5.74,5.5-9.28,7.42-6.14,6.11-12.95,11.38-20.08,16.29-4.09,2.82-8.6,4.82-13.11,6.7-4.27,1.78-8.71,3.34-13.37,3.99-.35.05-.75.18-1.02.4-.53.43-.46,1.03-.23,1.59.1.23.32.61.63.3.58-.58,1.27-.21,1.89-.32Zm83.73-37.54c-.44.14-.85.16-1.09.38-2.51,2.23-5.44,3.92-7.94,6.17-3.04,2.73-6.27,5.21-9.69,7.45-.83.54-1.54,1.26-2.38,1.8-2.65,1.7-5,3.81-7.75,5.39-1.33.77-2.41,2.06-3.76,2.95-3.69,2.47-7.29,5.08-11,7.52-3.33,2.19-6.79,4.17-10.2,6.22-3.33,2-6.92,3.34-10.53,4.66-.43.16-.84.32-.78.92.04.43.01.96.52.98,1.4.05,2.91.42,4.18-.13,2.3-.99,4.77-1.31,7.14-2.01,2.86-.85,5.69-1.83,8.28-3.21,3.18-1.69,6.38-3.36,9.38-5.41,2.68-1.83,5.5-3.49,7.99-5.57,3.33-2.79,6.77-5.44,9.87-8.52,5.42-5.37,10.97-10.6,15.84-16.49.72-.87,1.85-1.65,1.91-3.12Zm125.35-36.98c.02-.68-1.52-2.92-2.2-3.16-.48-.17-.57.09-.47.49.25.92.25,1.83-.06,2.75-.15.45.01,1.07.6.92.5-.12.97-.09,1.45-.15.54-.06.68-.39.67-.86Z"/>
      <path class="cls-3" d="m245.78,205.57c1.14-1.59,2.45-3.1,3.39-4.8,1.19-2.15,2.1-4.45,3.08-6.7.13-.31.02-.73.02-1.1-.5-.04-.73.31-.89.61-1.92,3.63-5.22,6-8.22,8.54-3.81,3.23-8.32,5.44-12.93,7.39-3.71,1.57-7.54,2.82-11.41,3.93-3.34.95-6.68,1.95-10.11,2.52-3.69.61-7.41,1.05-11.12,1.51-2.37.3-4.75.56-7.14.52-.39,0-.86.16-1.1-.34,2.41-.75,4.73-1.76,7.04-2.81,2.02-.91,4.1-1.68,6.15-2.53.91-.37,1.78-.84,2.7-1.16,3.1-1.06,5.95-2.68,9.05-3.76,1.74-.61,3.45-1.48,5.15-2.29,1.99-.94,4.11-1.64,6.02-2.72,2.63-1.5,5.31-2.91,7.92-4.45,4.06-2.39,7.86-5.18,11.96-7.51,2.41-1.37,4.66-3.02,6.98-4.55,2.72-1.79,5.45-3.57,8.16-5.38,2.56-1.71,5.09-3.48,7.65-5.19,2.05-1.37,4.11-2.7,6.27-3.89,1.1-.61,2.16-1.33,3.2-2.04,3.16-2.17,6.45-4.13,9.7-6.14,2.44-1.51,4.96-2.88,7.47-4.29,2.31-1.3,4.63-2.6,6.99-3.82,4.83-2.5,9.73-4.84,14.88-6.66,2.41-.85,4.83-1.73,7.29-2.38,4.63-1.21,9.34-2.24,14.15-1.02,3.94,1,7.22,3.01,9.33,6.61.08.13.13.27.35.73-4.03-3.99-8.7-4.2-13.6-3.66-2.32.25-4.56.86-6.88,1.11-.94.1-1.76.87-2.72,1.22-3.27,1.2-6.38,2.75-9.46,4.4-2.75,1.47-5.42,3.08-8.11,4.63-2.92,1.69-5.54,3.88-8.42,5.67-1.67,1.04-3,2.57-4.9,3.26-.34.13-.55.58-.86.84-1.96,1.64-4.04,3.12-6.07,4.66-2.87,2.18-5.71,4.41-8.5,6.69-4.35,3.55-8.59,7.24-12.94,10.79-2.59,2.11-5.01,4.4-7.58,6.52-3.31,2.73-6.44,5.67-9.82,8.32-3.33,2.61-6.49,5.43-9.9,7.93-.38.28-.69.74-1.4.65,2.63-2.53,5.19-5.01,7.54-7.7.06-.02.1-.05.13-.11.03-.08.09-.12.18-.1.57-.57,2.2-.42,1.32-1.96Z"/>
      <path class="cls-4" d="m186.71,134.86c-.24.86-.81,1.12-1.27,1.19-1.35.2-2.51.97-3.9,1.1-1.02.09-1.84.93-2.88,1.2-1.35.35-2.63.97-3.92,1.51-.87.36-1.77.43-2.68.43-16.74-.02-33.48-.06-50.22-.06-39.13,0-78.26.02-117.38.02-.91,0-1.82-.1-2.74-.14-.73-.03-1.01-.38-.97-1.11.05-.91.05-1.83,0-2.74-.06-1.04.43-1.42,1.41-1.39.62.02,1.25-.02,1.87-.02,56.53,0,113.07,0,169.6,0,4.31,0,8.63,0,13.08,0Z"/>
      <path class="cls-4" d="m47.63,206.45c.23,4.03-.91,7.19-3.69,9.65-1.31,1.17-2.87,1.85-4.71,1.93-1.51.06-2.98.31-4.52-.01-2.4-.49-4-1.89-5.4-3.78-.84-1.13-1.14-2.42-1.6-3.67-1.76-4.82.4-11.89,5.36-14.33,2.28-1.12,4.56-1.16,6.76-.78,3.2.55,5.53,2.58,6.84,5.66.77,1.83,1.22,3.69.96,5.32Zm-6.04.58c.29-1.34-.04-2.54-.49-3.69-.52-1.31-1.4-2.41-2.85-2.71-1.46-.3-2.86-.01-3.72,1.36-1.45,2.3-1.75,4.84-1.09,7.44.25,1.01.67,2.08,1.32,2.88.77.94,3.71,1.01,4.8.32.47-.3,1.06-.5,1.23-1.13.4-1.49,1.26-2.9.8-4.47Z"/>
      <path class="cls-4" d="m84.53,195.59c2.04,0,4.07.05,6.11-.02,1.01-.03,1.46.23,1.36,1.3-.08.86-.06,1.74-.01,2.61.05.84-.21,1.16-1.12,1.14-2.78-.07-5.57-.01-8.35-.07-.75-.02-1.07.11-.97.93.09.78-.25,1.77.12,2.3.54.77,1.37-.21,2.12-.23,2.45-.04,4.81.15,6.78,1.88,1.93,1.69,2.3,3.73,2.05,6.25-.27,2.75-1.76,4.34-3.89,5.65-1.25.77-2.71.71-4.07.88-3.3.42-6.38-.31-9.09-2.36-.73-.55-.84-.97-.16-1.67.77-.8,1.65-1.52,2.14-2.57.29-.62.73-.45,1.1-.09,1.74,1.73,3.78,2.25,6.18,1.74,1.54-.33,2.07-1.07,1.96-3.22-.05-1.05-1.18-2.05-2.36-2.01-1.3.04-2.65-.31-3.83.64-.32.26-.94.25-1.31-.02-.8-.59-1.7-1.03-2.5-1.59-.84-.59-.53-1.6-.39-2.4.12-.66.24-1.32.18-1.96-.22-2.16.4-4.27.23-6.42-.05-.69.38-.7.87-.7,2.28,0,4.57,0,6.85,0Z"/>
      <path class="cls-4" d="m12.82,217.98c-2.57,0-5.15-.03-7.72.02-.89.02-1.13-.28-1.11-1.14.03-1,.36-2,.06-3.01-.1-.34.1-.6.44-.79,3.76-2.12,7.13-4.75,10.23-7.73,1.26-1.21,1.5-2.71.46-4.11-.5-.67-1.5-1.07-2.47-.86-1.3.28-2.56.68-3.24,1.98-.55,1.05-1.1,1.08-1.91.19-.66-.73-1.54-1.25-2.28-1.92-.59-.53-.75-1.07-.07-1.78,3.12-3.26,6.98-4.35,11.18-3.19,5.09,1.41,7.37,6.9,3.64,11.49-1.67,2.05-3.85,3.52-6.26,4.62-.47.22-.56.54-.54.99.03.58.46.5.81.5,2.32-.02,4.65.02,6.97-.11,1.05-.06,1.19.68,1.08,1.17-.19.83-.11,1.64-.12,2.45-.02.91-.45,1.23-1.31,1.22-2.61-.02-5.23,0-7.84,0,0,0,0,0,0,0Z"/>
      <path class="cls-4" d="m61.22,217.99c-2.53,0-5.07-.03-7.6.02-.89.02-1.1-.27-1.28-1.17-.71-3.49,2.05-4.62,4.09-6.13,2.15-1.6,4.16-3.36,6.21-5.07.8-.66,1.23-1.72,1.2-2.87-.04-1.8-1.11-2.83-2.87-2.4-1.42.34-2.77,1.02-3.56,2.38-.34.58-.69.83-1.24.26-.87-.89-1.79-1.7-2.84-2.38-.56-.37-.6-.83-.13-1.33,2.16-2.29,4.56-3.91,7.93-4.01,3.09-.09,5.57.78,7.53,3.15,1.28,1.55,1.31,3.34,1.09,5.18-.43,3.49-3.18,5.12-5.7,6.9-.59.42-1.23.77-1.8,1.23-.43.35-.5.78-.38,1.22.14.52.63.25.95.25,2.12,0,4.24.02,6.35-.06.86-.03,1.23.16,1.15,1.08-.07.82-.06,1.66,0,2.49.07.96-.26,1.32-1.26,1.29-2.62-.06-5.23-.02-7.85-.02Z"/>
      <path class="cls-3" d="m78.96,170.8c3.52-.25,7.02-.02,10.53.17,1.25.07,2.12,1.03,3.17,1.53,1.09.52,1.57,1.23,1.84,2.25.52,2,.6,5.22-1.94,6.91-.95.63-.95,1.37-.64,2.35.33,1.07.86,1.92,1.67,2.68.58.55.99,1.28,1.57,2.05-.92.14-1.63.24-2.34.37-2.3.43-3.64-.8-4.65-2.64-.4-.74-.85-1.45-1.29-2.16-.35-.56-2.96-.99-3.45-.59-.2.16-.14.36-.09.55.39,1.34.06,2.71.18,4.06.05.6-.21.82-.8.78-.45-.03-.91,0-1.37,0-2.71,0-2.93-.17-2.79-2.88.23-4.42,0-8.84.04-13.26,0-.45.03-.91.04-1.36.18-.18.13-.39.1-.6-.01-.07.02-.11.09-.13.07.02.12-.01.13-.09Zm6.77,8.92c.7-.03,1.4-.06,2.1-.07,1.43-.03,2.16-.7,2.2-2.04.05-1.51-.8-2.61-2.1-2.66-1.32-.05-2.64,0-3.97-.01-.48,0-.67.01-.58.67.18,1.29.29,2.62-.09,3.92.01.05.03.09.06.12.48.22.98,0,1.47.08.31.23.61.24.9-.02Z"/>
      <path class="cls-3" d="m116.44,179.92c.6,5.1-4.61,9.82-9.81,9.63-6.04-.23-9.86-4.1-9.77-9.45.1-5.67,3.52-9.46,9.87-9.58,4.95-.1,10.27,4.11,9.71,9.41Zm-13.92,3.27c-.51.41-.27.8.07,1.15.47.49,1.08.27,1.64.26,1.74.84,3.46.61,5.19-.03.55.47,1.01.15,1.41-.21.36-.32.57-.72.13-1.16.3-1.19.58-2.36.52-3.62-.11-2.53-1.57-4.3-4.01-4.62-2.14-.28-4.32.59-4.92,2.01-.88,2.06-1.24,4.15-.03,6.23Z"/>
      <path class="cls-3" d="m63.56,176.79c0,1.49.06,2.99-.02,4.47-.06,1.09.33,2.01.77,2.93.34.71,2.54,1.19,3.71.86,1.82-.51,2.76-1.77,2.79-3.91.04-3.11.04-6.21,0-9.32-.01-.84.18-1.12,1.08-1.13,3.93-.03,3.91-.06,3.93,3.77.01,3.13,0,6.26-.47,9.36-.33,2.13-2.39,4.52-4.86,5.16-2.45.63-4.77.78-7.08-.17-1.42-.58-2.51-1.39-3.43-2.9-1.77-2.9-1.07-5.9-1.25-8.87-.1-1.73.13-3.47.12-5.21,0-.71.21-.93.91-.9.94.04,1.88.08,2.82-.2.75-.22,1.1.08,1.06.96-.08,1.69-.02,3.4-.02,5.09-.01,0-.03,0-.04,0Z"/>
      <path class="cls-3" d="m33.92,176.5c0-1.58.04-3.15-.02-4.73-.03-.79.17-1.06,1.02-1.07,3.99-.06,3.99-.09,3.98,3.85,0,2.68.02,5.37-.23,8.05-.29,3.16-2.53,5.66-5.58,6.49-2.54.69-4.93.57-7.28-.52-2.1-.98-3.25-2.6-3.68-4.94-.73-3.99-.22-7.98-.4-11.97-.02-.54.16-.7.71-.71,1.15-.01,2.3.15,3.44-.2.61-.19.8.4.79.83-.06,2.51.21,5.03-.19,7.54-.28,1.76-.1,3.52.79,5.11.18.32.56.59.99.67.41.07.81.19,1.22.22,3,.16,4.16-.69,4.4-3.76.12-1.61.02-3.23.02-4.85h0Z"/>
      <path class="cls-3" d="m56.86,156.43c0,2.36-.03,4.72.01,7.09.02.89-.28,1.13-1.19,1.27-2.28.34-3.46-.91-4.58-2.59-1.26-1.89-2.71-3.66-4.12-5.45-.38-.49-1.03-.62-1.6-.42-.51.18-.2.72-.23,1.09-.18,2.07.24,4.12.22,6.18,0,.82-.16,1.25-1.12,1.1-1.06-.16-2.51.51-3.1-.15-.51-.57-.02-1.99-.01-3.04.01-4.1.03-8.21-.02-12.31-.01-.95.31-1.05,1.18-1.18,2.3-.34,3.61.75,4.88,2.49,1.13,1.54,2.11,3.23,3.56,4.52.4.35.82.86,1.38.68.67-.22.41-.92.41-1.42,0-1.74-.02-3.48-.08-5.22-.03-.71.09-1.09.93-1.02.82.07,1.66.05,2.49,0,.78-.04,1,.31,1,1.04-.03,2.44-.01,4.89-.01,7.33Z"/>
      <path class="cls-3" d="m143.88,162.78c-1.05-.86-1.79-1.99-2.59-3.06-.8-1.08-1.61-2.13-2.62-3.03-.25-.22-.49-.55-.83-.45-.43.13-.21.57-.21.85-.01,2.15-.03,4.3.02,6.45.02.88-.17,1.34-1.15,1.21-1.02-.13-2.26.37-3.03-.2-.92-.68-.1-1.93-.13-2.92-.1-4.13-.06-8.27-.16-12.4-.03-1.12.31-1.52,1.4-1.37.61.08,1.24.09,1.85.13.44.84,1.24,1.29,2,1.78,1.02,1.13,2.11,2.2,2.82,3.58.63,1.24,1.8,1.98,2.77,2.89.49.46.57-.21.57-.59,0-1.91,0-3.81,0-5.72,0-1.85.78-2.36,2.69-2.06,1.13.18,1.35.61,1.33,1.7-.06,4.55.01,9.11.03,13.66,0,.26,0,.52.01.78.04.2.01.38-.15.52-.28,0-.56.02-.85.02-.22,0-.44.01-.65.02,0,0-.04-.04-.04-.04l-.04.04c-.46.03-.91.06-1.37.09-.23-.92-.54-1.78-1.68-1.89Z"/>
      <path class="cls-3" d="m158.73,147.91c3.34-.23,6.74-.3,9.91.77,2.39.81,4.22,2.41,5.07,5.14.95,3.07.07,5.57-1.64,7.87-1.46,1.96-3.69,2.86-6.09,3-2.31.14-4.64.03-6.96.03-.21,0-.41-.04-.5-.27.02-.07,0-.11-.07-.13,0-5.36,0-10.72,0-16.08.06-.02.08-.06.07-.12,0-.07.02-.11.09-.13.07.01.12-.02.13-.09Zm3.94,5.46l-.06.04.04.05c0,1.97,0,3.94,0,5.91-.02.29-.03.58-.05.87.07.09.12.22.21.26,1.6.71,4.07.18,5.45-1.03,1.41-1.24,1.27-3.22.85-4.89-.16-.62-.48-1.33-.95-1.72-1-.83-2.31-1-3.57-1.07-1.71-.1-1.72-.05-1.93,1.58Z"/>
      <path class="cls-3" d="m122.32,147.82c2.12-.35,4.04.78,5.93,1.98,1.05.66,1.31,1.86,1.84,2.83,1.31,2.42,1.05,5.07-.05,7.37-.55,1.15-.95,2.71-2.48,3.37-1.69.73-3.21,1.68-5.21,1.69-3.05,0-5.53-1.08-7.33-3.39-3.6-4.6-1.88-10.51,2.86-12.98,1.81-.94,1.85-.87,4.44-.87Zm1.93,12.92c.68.37,1.18.17,1.7-.39.52-.56.3-1.01.01-1.51.74-1.73.57-3.46-.06-5.18.22-.56.32-1.12-.16-1.59-.32-.32-.7-.44-1.06-.03-.51-.12-1.02-.23-1.53-.37-1.38-.38-4,.12-4.46,1.03-.79,1.59-1.37,3.3-.96,5.09.38,1.67,1.17,2.97,3.18,3.31,1.22.21,2.23-.15,3.32-.36Z"/>
      <path class="cls-3" d="m29.84,147.82c6.11.05,9.02,3.72,9.02,8.4,0,5.28-3.62,8.36-8.67,8.8-4.62.41-8.94-4.16-9.09-8.32-.19-5.09,4.55-9.43,8.74-8.89Zm4.61,8.16c.35-1.95-1.51-4.18-3.45-4.41-1.92-.23-5.19.98-5.47,2.42-.28,1.44-.22,3,0,4.45.1.65.92,1.21,1.46,1.76,1.29,1.32,4.94,1.1,6.13-.13,1.15-1.18,1.24-2.52,1.32-4.1Z"/>
      <path class="cls-3" d="m17.55,182.28c-2.22.11-4.44.09-6.66-.03-.13-.11-.24-.08-.34.04-.65.11-.55.61-.55,1.06,0,1.33.01,2.65,0,3.98-.02,1.4-.39,1.79-1.75,1.79-3.53,0-3.23.32-3.23-3.19,0-4.72.02-9.44-.02-14.17,0-.79.18-1.07,1.02-1.06,4.27.04,8.55.03,12.82-.02.75,0,.93.24.9.92-.05,1.11.36,2.5-.16,3.27-.51.75-1.97.09-3.01.13-1.86.07-3.73,0-5.6-.07-.77-.03-.98.21-.99.97-.02,2.56-.05,2.55,2.53,2.51,1.83-.03,3.65,0,5.48-.06.76-.02,1.06.23.99.99-.09,1,.23,2.09-.75,2.85-.23-.03-.47-.08-.68.08Z"/>
      <path class="cls-3" d="m176.39,164.32c0-4.14.03-8.28.02-12.43,0-1.11-.09-2.23-.15-3.34-.04-.68.27-1.03.96-.95,3.84.44,7.69.09,11.54.22.16,0,.43,0,.47.08.46.85.27,1.74.12,2.63-.11.59-.29,1.05-1.1,1.03-2.12-.06-4.24-.04-6.35-.03-1.44,0-1.45.1-1.41,2.16.03,1.21.72.87,1.47.85,1.99-.07,3.99,0,5.98-.02.61,0,.8.26.78.82-.02.58-.03,1.16.02,1.74.07.75-.19,1.01-.98.99-2.03-.06-4.07.02-6.1-.06-.96-.03-1.26.3-1.16,1.21.09.84-.21,1.83,1.22,1.8,2.16-.04,4.32.04,6.48-.02,1.18-.03,1.6.39,1.56,1.59-.07,2.14,0,2.14-2.19,2.14-3.28,0-6.56.01-9.84-.01-.42,0-.93.23-1.25-.28.01-.06,0-.11-.07-.13Z"/>
      <path class="cls-3" d="m97.14,147.86c1.57-.16,2.98-.1,4.22.86.19.15.56.05.85.09,1.11.15,1.58,1.11,1.02,2.07-1.19,2.03-1.2,2.05-3.4,1.05-1.24-.56-2.53-.34-3.8-.36-.62,0-.79.47-.77,1.05.02.54-.06.99.71,1.2,2.14.6,4.26,1.31,6.37,2.03,1.24.42,2.36,2.64,2.14,4.19-.16,1.16-.51,2.32-1.41,3.08-.83.69-1.83,1.36-2.86,1.6-2.14.48-4.29.51-6.44-.38-1.14-.48-2.3-.8-3.16-1.76-.12-.13-.42-.1-.13-.38.4-.38.48-.93.75-1.37.81-1.33,1.07-1.35,2.46-.57,1.76.98,3.68,1.14,5.64,1,.46-.03.72-.31.65-.73-.09-.5.37-1.21-.38-1.49-1.1-.41-2.17-.85-3.36-1.1-1.77-.37-3.6-.99-4.81-2.63-1.35-1.84-.18-5.63,1.89-6.53,1.29-.57,2.47-1.24,3.82-.91Z"/>
      <path class="cls-3" d="m82.56,148.17c-.69,1.68-1.33,3.38-2.09,5.03-1.02,2.21-1.83,4.51-2.94,6.69-.53,1.04-1.04,2.39-1.21,3.69-.14,1.05-.67,1.54-1.76,1.43-.53-.05-1.08-.02-1.62-.01-.99,0-1.68-.28-1.66-1.46,0-.43-.22-.87-.39-1.29-1-2.41-1.83-4.92-2.93-7.26-.93-1.96-1.21-4.17-2.53-5.96-.71-.95-.54-1.16.61-1.18.75,0,1.5.07,2.24-.02,1.32-.17,1.86.49,2.13,1.66.56,2.41,1.69,4.64,2.41,7,.18.58.43,1.22,1.29,1.01.76-.19,1.14-.6.98-1.43-.05-.27-.05-.64.09-.85.78-1.13.68-2.6,1.47-3.71.59-.83.36-1.9.88-2.78.34-.59.65-.88,1.32-.86.91.04,1.82.03,2.73.04,0,0,.09.07.09.07l.08-.08c.3-.05.61-.14.79.22,0,0,.02.04.02.04Z"/>
      <path class="cls-3" d="m13.1,164.98c-3.48.35-7.24-2.92-8.18-5.94-1.18-3.81.43-7.92,3.2-9.83,1.72-1.18,3.7-1.54,5.9-1.49,2.23.05,3.71,1.31,5.44,2.25.64.35.37.85.04,1.2-.67.73-1.4,1.41-2.11,2.09-.44.42-.76.08-1.05-.22-1.54-1.59-3.33-1.78-5.3-.98-.18.07-.36.2-.51.33-1.56,1.39-2.01,5.78-.77,7.45,1.07,1.45,4.8,1.68,6.2.37,1.08-1.01,1.32-1,2.41.08.26.26.53.44.94.51.76.13.88.73.33,1.3-2.15,2.21-3.64,2.86-6.54,2.87Z"/>
      <path class="cls-3" d="m48.83,170.71c2.2,0,4.4.02,6.6-.01,1.07-.02,1.45.43,1.45,1.49-.01,2.72.02,2.72-2.64,2.73-.41,0-.83,0-1.24,0-2.26.03-2.05-.52-2.08,2.13-.03,3.52-.04,7.04.01,10.56.02,1.04-.49,1.39-1.38,1.48-.12.01-.25.01-.37.02q-3.06.11-3.05-2.95c0-3.44-.02-6.87.03-10.31.01-.81-.23-.98-.98-.94-1.12.06-2.24-.02-3.36.02-.71.02-.94-.27-.92-.95.11-4.06-.62-3.18,3.08-3.28,1.62-.04,3.24,0,4.85,0h0Z"/>
      <path class="cls-3" d="m84.01,156.27c0-2.44.04-4.89-.02-7.33-.02-.96.29-1.24,1.22-1.15.82.08,1.66.06,2.49,0,.67-.04.85.22.84.86-.02,5.06-.03,10.11,0,15.17,0,.71-.23,1-.93.91-.25-.03-.5-.01-.75-.04-.93-.11-2.2.52-2.72-.18-.46-.62-.12-1.82-.12-2.77,0-1.82,0-3.65,0-5.47h0Z"/>
      <path class="cls-3" d="m306.52,124.18c3.13-.01,5.36,2.06,5.27,4.95-.09,2.82-2.97,5.17-5.42,5.03-2.54-.15-4.97-2.95-4.95-5.17.01-1.38.69-2.74,1.58-3.66.88-.91,2.28-1.41,3.52-1.15Zm.98,4.48c1.11,0,1.71-.48,1.63-1.5-.06-.84-.17-1.77-1.41-1.76-1.01.01-2.03.76-2.07,1.56-.05.87.85,1.7,1.85,1.7Z"/>
      <path class="cls-3" d="m106.67,148.13c1.26-.59,2.58-.27,3.86-.21.59.03.4.74.37,1.16-.18,2.98-.14,5.96-.16,8.94,0,1.94-.06,3.88-.04,5.82.01.7-.19.98-.91.89-.41-.05-.83,0-1.24,0-2.3,0-2.24.33-2.07-2,.34-4.47-.04-8.94.05-13.4,0-.21.02-.41.04-.62.17-.17.11-.38.09-.58Z"/>
      <path class="cls-3" d="m126.83,144.12c-.96.58-2.17.5-2.75,1.6-.14.27-3.02.56-3.21.36-.27-.29-.28-.6.11-.81.63-.33.88-.89,1.14-1.52.39-.96,1.09-1.42,2.18-.9.84.4,1.78.59,2.52,1.27Z"/>
      <path class="cls-4" d="m143.88,162.78c1.14.11,1.45.96,1.68,1.89-.93-.3-1.73-.72-1.68-1.89Z"/>
      <path class="cls-4" d="m138.45,149.78c-.76-.49-1.56-.94-2-1.78,1.4-.23,1.62.87,2,1.78Z"/>
      <path class="cls-4" d="m245.78,205.57c.88,1.54-.75,1.4-1.32,1.96.09-.89.8-1.36,1.32-1.96Z"/>
      <path class="cls-4" d="m147.67,164.57c.28,0,.57-.02.85-.02-.28.24-.56.13-.85.02Z"/>
      <path class="cls-4" d="m148.67,164.02c0-.26,0-.52-.01-.78.15.26.14.52.01.78Z"/>
      <path class="cls-4" d="m106.67,148.13c.02.2.08.41-.09.58-.07-.21-.13-.42.09-.58Z"/>
      <path class="cls-4" d="m78.74,171.01c.03.21.08.43-.1.6-.06-.22-.12-.43.1-.6Z"/>
      <path class="cls-4" d="m17.55,182.28c.21-.16.45-.11.68-.08-.21.2-.44.17-.68.08Z"/>
      <path class="cls-4" d="m82.56,148.17s-.02-.05-.02-.04c.03-.02.06-.04.09-.06-.02.04-.04.07-.07.11Z"/>
      <path class="cls-4" d="m10.55,182.3c.1-.13.21-.16.34-.04-.11.01-.23.03-.34.04Z"/>
      <path class="cls-4" d="m158.73,147.91c-.01.07-.06.1-.13.09,0,0,.03-.09.03-.09h.1Z"/>
      <path class="cls-4" d="m78.96,170.8c-.01.07-.05.1-.13.09,0,0,.03-.09.03-.09h.1Z"/>
      <path class="cls-4" d="m81.74,147.91l-.08.08s-.09-.07-.09-.07c.05-.05.11-.06.17-.01Z"/>
      <path class="cls-4" d="m158.51,148.12c.01.06,0,.1-.07.12,0,0-.02-.09-.02-.09l.08-.03Z"/>
      <polygon class="cls-4" points="146.93 164.58 146.97 164.54 147.02 164.58 146.93 164.58"/>
      <path class="cls-4" d="m176.39,164.32c.06.02.08.06.07.13,0,0-.09-.04-.09-.04l.02-.09Z"/>
      <path class="cls-4" d="m244.28,207.63c-.02.06-.06.1-.13.11-.02-.11,0-.17.13-.11Z"/>
      <path class="cls-4" d="m158.44,164.33c.06.02.09.07.07.13,0,0-.09-.04-.09-.04l.02-.09Z"/>
      <path class="cls-1" d="m154.45,79.43c-1.95,0-3.9,0-5.85,0-.86,0-1.15-.17-.81-1.17.54-1.57,1.13-3.14,1.68-4.7.3-.85.52-1.8,1.03-2.61.47-.73.66-1.56.89-2.4.25-.9.66-1.81,1.1-2.67.42-.81.77-1.65.82-2.55.04-.79.53-.83,1.08-.86.57-.03,1.11-.13,1.29.72.5,2.42,1.62,4.64,2.44,6.95.73,2.04,1.39,4.12,2.23,6.13.32.78.5,1.62.7,2.44.14.6-.15.79-.75.78-1.95-.03-3.9-.01-5.85-.01,0-.02,0-.03,0-.05Z"/>
      <path class="cls-1" d="m146.93,205.55c-.63.11-1.32-.26-1.89.32-.32.32-.53-.06-.63-.3-.24-.56-.3-1.16.23-1.59.27-.22.66-.35,1.02-.4,4.66-.65,9.1-2.21,13.37-3.99,4.51-1.88,9.02-3.88,13.11-6.7,7.13-4.91,13.94-10.18,20.08-16.29,3.54-1.91,5.95-5.23,9.28-7.42,2.02-1.33,3.72-3.11,5.66-4.59,3.89-2.98,7.8-5.95,11.99-8.49,2.82-1.71,5.29-3.99,8.41-5.2.3-.12.65-.58.97-.17.23.29.13.74-.08,1.06-.52.77-1.01,1.67-1.27,2.46-.55,1.68-2.23,2.58-2.61,4.31-.09.42-.63.74-.93,1.13-2.49,3.17-4.84,6.45-7.49,9.48-3.53,4.05-7.43,7.77-11.57,11.21-4.56,3.79-9.46,7.12-14.58,10.13-3.13,1.84-6.4,3.39-9.65,5.01-3.61,1.8-7.44,3.01-11.13,4.57-1.11.47-2.32.76-3.49,1.11-4.41,1.33-8.88,2.48-13.46,3.14-1.25.18-2.31.99-3.61,1.11-.57.05-1.15,0-1.72.1Z"/>
      <path class="cls-1" d="m230.65,168.01c-.06,1.47-1.19,2.25-1.91,3.12-4.87,5.88-10.42,11.12-15.84,16.49-3.1,3.08-6.54,5.73-9.87,8.52-2.49,2.08-5.31,3.73-7.99,5.57-3,2.05-6.2,3.73-9.38,5.41-2.6,1.38-5.42,2.36-8.28,3.21-2.37.7-4.83,1.02-7.14,2.01-1.27.55-2.78.17-4.18.13-.51-.02-.49-.55-.52-.98-.06-.61.36-.77.78-.92,3.61-1.32,7.2-2.66,10.53-4.66,3.41-2.05,6.88-4.03,10.2-6.22,3.71-2.44,7.31-5.05,11-7.52,1.34-.9,2.43-2.19,3.76-2.95,2.75-1.59,5.1-3.69,7.75-5.39.83-.54,1.55-1.25,2.38-1.8,3.41-2.25,6.65-4.73,9.69-7.45,2.5-2.25,5.43-3.94,7.94-6.17.24-.21.66-.23,1.09-.38Z"/>
      <path class="cls-1" d="m356.01,131.03c.02.47-.13.8-.67.86-.48.06-.95.02-1.45.15-.59.15-.75-.47-.6-.92.3-.93.3-1.83.06-2.75-.11-.4-.01-.67.47-.49.68.25,2.22,2.49,2.2,3.16Z"/>
      <path class="cls-1" d="m41.59,207.03c.46,1.57-.4,2.98-.8,4.47-.17.63-.76.83-1.23,1.13-1.09.69-4.03.62-4.8-.32-.65-.79-1.07-1.86-1.32-2.88-.65-2.6-.36-5.13,1.09-7.44.86-1.37,2.26-1.66,3.72-1.36,1.45.3,2.33,1.4,2.85,2.71.45,1.14.79,2.35.49,3.69Z"/>
      <path class="cls-1" d="m84.83,179.74c-.49-.08-.99.14-1.47-.08,0,0,0-.08,0-.08l-.07-.04c.38-1.3.28-2.63.09-3.92-.09-.66.1-.68.58-.67,1.32.01,2.65-.03,3.97.01,1.3.04,2.14,1.15,2.1,2.66-.04,1.34-.77,2.01-2.2,2.04-.7.01-1.4.05-2.1.07-.3,0-.6.01-.9.02Z"/>
      <path class="cls-4" d="m84.83,179.74c.3,0,.6-.01.9-.02-.3.26-.6.25-.9.02Z"/>
      <path class="cls-4" d="m83.29,179.53l.07.04s0,.08,0,.08c-.03-.04-.05-.08-.06-.12Z"/>
      <path class="cls-1" d="m109.42,184.56c-1.73.64-3.45.87-5.19.03-.64-.39-.97-1.15-1.71-1.41-1.21-2.08-.85-4.16.03-6.23.61-1.42,2.78-2.29,4.92-2.01,2.44.32,3.91,2.09,4.01,4.62.05,1.26-.22,2.43-.52,3.62-.75.19-1.05.89-1.54,1.37Z"/>
      <path class="cls-4" d="m109.42,184.56c.49-.48.79-1.18,1.54-1.37.45.44.23.84-.13,1.16-.4.37-.86.68-1.41.21Z"/>
      <path class="cls-4" d="m102.52,183.18c.74.26,1.07,1.02,1.71,1.41-.56,0-1.17.23-1.64-.26-.33-.35-.57-.73-.07-1.15Z"/>
      <path class="cls-1" d="m162.66,159.37c0-1.97,0-3.94,0-5.91,0,0,.05-.04.05-.04l-.03-.05c.2-1.63.21-1.68,1.93-1.58,1.26.08,2.57.24,3.57,1.07.47.39.79,1.1.95,1.72.42,1.67.56,3.65-.85,4.89-1.38,1.21-3.85,1.74-5.45,1.03-.09-.04-.14-.17-.21-.26.29-.27.12-.58.05-.87Z"/>
      <path class="cls-4" d="m162.66,159.37c.07.3.24.6-.05.87.02-.29.03-.58.05-.87Z"/>
      <polygon class="cls-4" points="162.67 153.36 162.71 153.42 162.66 153.46 162.62 153.41 162.67 153.36"/>
      <path class="cls-1" d="m125.91,153.66c.63,1.72.8,3.44.06,5.18-.37.81-1.2,1.22-1.71,1.9-1.09.21-2.1.57-3.32.36-2.02-.34-2.8-1.64-3.18-3.31-.41-1.79.17-3.5.96-5.09.45-.9,3.07-1.41,4.46-1.03.5.14,1.02.25,1.53.37.28.63.71,1.15,1.22,1.62Z"/>
      <path class="cls-4" d="m124.25,160.73c.52-.68,1.34-1.08,1.71-1.9.29.5.51.96,0,1.51-.52.55-1.02.75-1.7.39Z"/>
      <path class="cls-4" d="m125.91,153.66c-.51-.46-.94-.98-1.22-1.62.36-.41.74-.29,1.06.03.47.47.37,1.03.16,1.59Z"/>
      <path class="cls-1" d="m34.45,155.97c-.09,1.58-.18,2.92-1.32,4.1-1.2,1.23-4.84,1.45-6.13.13-.54-.55-1.37-1.12-1.46-1.76-.22-1.46-.27-3.01,0-4.45.28-1.45,3.55-2.65,5.47-2.42,1.94.23,3.8,2.46,3.45,4.41Z"/>
      <path class="cls-1" d="m307.5,128.66c-1,0-1.9-.83-1.85-1.7.05-.8,1.06-1.55,2.07-1.56,1.24-.01,1.34.92,1.41,1.76.08,1.02-.52,1.5-1.63,1.5Z"/>
    </g>
  </g>
</svg>